<svg xmlns="http://www.w3.org/2000/svg" viewBox="0 0 120 120" width="120" height="120">
  <defs>
    <linearGradient id="g" x1="0%" y1="0%" x2="100%" y2="100%">
      <stop offset="0%" style="stop-color:#9B59B6"/>
      <stop offset="100%" style="stop-color:#6C3483"/>
    </linearGradient>
  </defs>
  <circle cx="60" cy="60" r="56" fill="url(#g)"/>
  <g transform="translate(23,18)" fill="none" stroke="#fff" stroke-width="2.5" stroke-linecap="round" stroke-linejoin="round">
    <!-- Server rack frame -->
    <rect x="8" y="5" width="58" height="78" rx="4" fill="none"/>
    <!-- Server unit 1 -->
    <rect x="14" y="12" width="46" height="14" rx="2" fill="#fff" fill-opacity="0.15"/>
    <circle cx="22" cy="19" r="2" fill="#2ECC71"/>
    <line x1="42" y1="17" x2="54" y2="17"/>
    <line x1="42" y1="21" x2="50" y2="21"/>
    <!-- Server unit 2 -->
    <rect x="14" y="32" width="46" height="14" rx="2" fill="#fff" fill-opacity="0.15"/>
    <circle cx="22" cy="39" r="2" fill="#FFD700"/>
    <line x1="42" y1="37" x2="54" y2="37"/>
    <line x1="42" y1="41" x2="50" y2="41"/>
    <!-- Server unit 3 -->
    <rect x="14" y="52" width="46" height="14" rx="2" fill="#fff" fill-opacity="0.15"/>
    <circle cx="22" cy="59" r="2" fill="#2ECC71"/>
    <line x1="42" y1="57" x2="54" y2="57"/>
    <line x1="42" y1="61" x2="50" y2="61"/>
    <!-- Network lines -->
    <path d="M67,25 L74,25 L74,45 L67,45" stroke-width="1.5" stroke-opacity="0.5"/>
    <path d="M67,55 L74,55 L74,45" stroke-width="1.5" stroke-opacity="0.5"/>
    <!-- Base -->
    <line x1="20" y1="75" x2="54" y2="75"/>
  </g>
</svg>
