<svg xmlns="http://www.w3.org/2000/svg" viewBox="0 0 120 120" width="120" height="120">
  <defs>
    <linearGradient id="g" x1="0%" y1="0%" x2="100%" y2="100%">
      <stop offset="0%" style="stop-color:#00B4D8"/>
      <stop offset="100%" style="stop-color:#0077B6"/>
    </linearGradient>
  </defs>
  <circle cx="60" cy="60" r="56" fill="url(#g)"/>
  <g transform="translate(25,16)" fill="none" stroke="#fff" stroke-width="2.5" stroke-linecap="round" stroke-linejoin="round">
    <!-- Building body -->
    <rect x="10" y="20" width="50" height="68" rx="3" fill="none"/>
    <!-- Roof / antenna -->
    <line x1="35" y1="20" x2="35" y2="8"/>
    <line x1="30" y1="12" x2="40" y2="12"/>
    <!-- Windows grid -->
    <rect x="18" y="28" width="8" height="8" rx="1" fill="#fff" fill-opacity="0.3"/>
    <rect x="31" y="28" width="8" height="8" rx="1" fill="#fff" fill-opacity="0.3"/>
    <rect x="44" y="28" width="8" height="8" rx="1" fill="#fff" fill-opacity="0.3"/>
    <rect x="18" y="42" width="8" height="8" rx="1" fill="#fff" fill-opacity="0.3"/>
    <rect x="31" y="42" width="8" height="8" rx="1" fill="#FFD700" fill-opacity="0.5"/>
    <rect x="44" y="42" width="8" height="8" rx="1" fill="#fff" fill-opacity="0.3"/>
    <rect x="18" y="56" width="8" height="8" rx="1" fill="#FFD700" fill-opacity="0.5"/>
    <rect x="31" y="56" width="8" height="8" rx="1" fill="#fff" fill-opacity="0.3"/>
    <rect x="44" y="56" width="8" height="8" rx="1" fill="#fff" fill-opacity="0.3"/>
    <!-- Door -->
    <rect x="29" y="72" width="12" height="16" rx="2" fill="#fff" fill-opacity="0.2"/>
    <!-- Wifi / smart signal -->
    <path d="M55,14 Q62,10 62,18" stroke="#fff" stroke-opacity="0.6" fill="none" stroke-width="1.5"/>
    <path d="M57,12 Q66,6 66,20" stroke="#fff" stroke-opacity="0.4" fill="none" stroke-width="1.5"/>
  </g>
</svg>
